# xmcd
#
# Track frame offsets: 
#        151
#        19088
#        37353
#        55778
#        70799
#        86444
#        105751
#        120996
#        139959
#        159398
#
# Disc length: 2327 seconds
#
# Revision: 0
# Processed by: cddbd v1.5.1PL2 Copyright (c) Steve Scherf et al.
# Submitted via: ExactAudioCopy v0.95b4
#
DISCID=7909150a
DTITLE=นกน้อย  อุไรพร - แม่ลูกอลเวง
DYEAR=2005
DGENRE=Country
TTITLE0=แก้ตัวให้หัวใจ
TTITLE1=แม่ลูกอลเวง
TTITLE2=อยากเป็นน้องโกง
TTITLE3=เลิกงานกันนะ
TTITLE4=อยากเอาผัวไปเทิน
TTITLE5=เส้นทางของนก
TTITLE6=หัวอกเมีย
TTITLE7=เทพธิดาป่ามอน
TTITLE8=คู่ใจคนจน
TTITLE9=คึดฮอดสามี
EXTD=
EXTT0=
EXTT1=
EXTT2=
EXTT3=
EXTT4=
EXTT5=
EXTT6=
EXTT7=
EXTT8=
EXTT9=
PLAYORDER=
